<?xml version="1.0" standalone="no"?>
<!DOCTYPE svg PUBLIC "-//W3C//DTD SVG 20010904//EN"
 "http://www.w3.org/TR/2001/REC-SVG-20010904/DTD/svg10.dtd">
<svg version="1.0" xmlns="http://www.w3.org/2000/svg"
 width="1500.000000pt" height="1500.000000pt" viewBox="0 0 1500.000000 1500.000000"
 preserveAspectRatio="xMidYMid meet">

<g transform="translate(0.000000,1500.000000) scale(0.100000,-0.100000)"
fill="#000000" stroke="none">
<path d="M2580 9577 c-13 -7 -30 -24 -37 -37 -10 -20 -12 -363 -10 -1668 l2
-1644 24 -19 c22 -18 44 -19 388 -19 218 0 372 4 383 10 10 5 23 24 29 41 8
23 11 397 11 1290 l0 1259 265 0 265 0 0 -1269 0 -1269 26 -31 26 -31 333 0
c313 0 334 1 356 19 l24 19 5 1279 5 1278 265 0 265 0 5 -1278 5 -1279 24 -19
c22 -18 44 -19 382 -19 l358 0 28 24 28 24 0 1439 0 1438 -22 70 c-58 183
-188 314 -373 378 l-65 22 -1485 3 c-1186 2 -1490 -1 -1510 -11z"/>
<path d="M6624 9583 c-12 -2 -30 -13 -40 -25 -18 -19 -19 -79 -22 -1657 -1
-1155 1 -1644 9 -1662 5 -15 22 -31 35 -38 18 -8 344 -11 1185 -11 l1160 0 24
25 25 24 0 359 c0 339 -1 361 -19 383 l-19 24 -729 5 c-550 4 -733 8 -749 17
-12 7 -27 27 -33 44 -8 23 -11 385 -11 1246 0 800 -3 1221 -10 1233 -6 11 -27
24 -48 30 -35 9 -710 13 -758 3z"/>
<path d="M2532 5663 l3 -258 62 -3 63 -3 2 198 3 198 43 3 42 3 0 -200 0 -201
60 0 60 0 0 201 0 200 43 -3 42 -3 3 -198 2 -198 63 3 62 3 0 232 c0 231 0
231 -24 257 l-24 26 -254 0 -253 0 2 -257z"/>
<path d="M3235 5895 l-25 -24 0 -236 0 -236 63 3 62 3 3 78 3 77 84 0 84 0 3
-77 3 -78 65 0 65 0 0 233 0 234 -28 24 c-27 23 -33 24 -193 24 -162 0 -165 0
-189 -25z m275 -155 l0 -70 -85 0 -85 0 0 70 0 70 85 0 85 0 0 -70z"/>
<path d="M3988 5723 l-3 -198 -44 -3 c-84 -6 -91 -1 -91 74 l0 65 -62 -3 -63
-3 0 -102 c0 -94 2 -103 24 -127 24 -26 26 -26 173 -26 145 0 150 1 173 25
l25 24 0 236 0 235 -65 0 -65 0 -2 -197z"/>
<path d="M4266 5889 l-26 -31 0 -200 0 -200 29 -29 29 -29 157 0 c157 0 186 5
212 39 9 11 12 76 13 224 0 275 15 257 -219 257 l-169 0 -26 -31z m284 -229
l0 -141 -87 3 -88 3 -3 124 c-1 69 0 131 2 138 4 9 30 13 91 13 l85 0 0 -140z"/>
<path d="M4800 5660 l0 -260 65 0 64 0 3 78 3 77 46 3 46 3 44 -78 44 -78 74
-3 73 -3 -32 58 c-18 32 -37 65 -43 74 -7 11 -2 23 22 46 l31 31 0 132 c0 126
-1 132 -25 155 -24 25 -25 25 -220 25 l-195 0 0 -260z m310 75 l0 -65 -90 0
-90 0 0 65 0 65 90 0 90 0 0 -65z"/>
<path d="M5630 5660 l0 -260 175 0 175 0 0 60 c0 41 -4 60 -12 61 -7 1 -56 2
-108 3 l-95 1 -3 198 -2 197 -65 0 -65 0 0 -260z"/>
<path d="M6055 5907 c-3 -7 -4 -123 -3 -257 l3 -245 200 0 200 0 0 55 0 55
-132 3 -133 3 0 44 0 44 113 3 112 3 3 48 3 47 -115 0 -116 0 0 45 0 45 130 0
130 0 0 60 0 60 -195 0 c-149 0 -197 -3 -200 -13z"/>
<path d="M6605 5895 l-25 -24 0 -236 0 -236 63 3 62 3 3 78 3 77 84 0 84 0 3
-77 3 -78 65 0 65 0 0 233 0 234 -28 24 c-27 23 -33 24 -193 24 -162 0 -165 0
-189 -25z m275 -155 l0 -70 -85 0 -85 0 0 70 0 70 85 0 85 0 0 -70z"/>
<path d="M7163 5896 l-28 -24 -3 -205 -3 -204 26 -32 27 -31 169 0 c167 0 170
0 194 25 24 23 25 30 25 140 l0 116 -62 -3 -63 -3 -5 -75 -5 -75 -80 0 -80 0
0 135 0 135 135 5 135 5 0 55 0 55 -177 3 c-174 2 -177 2 -205 -22z"/>
<path d="M7690 5685 l0 -236 25 -24 c24 -25 27 -25 194 -25 l169 0 26 31 26
31 0 229 0 230 -67 -3 -68 -3 -5 -195 -5 -195 -80 0 -80 0 -3 198 -2 197 -65
0 -65 0 0 -235z"/>
<path d="M8250 5660 l0 -260 200 0 201 0 -3 58 -3 57 -132 3 -133 3 0 44 0 45
115 0 115 0 0 50 0 50 -115 0 -115 0 0 45 0 44 133 3 132 3 3 58 3 57 -201 0
-200 0 0 -260z"/>
<path d="M9030 5660 l0 -261 63 3 62 3 3 98 3 97 84 0 84 0 3 -97 3 -98 63 -3
62 -3 0 261 0 261 -62 -3 -63 -3 -3 -92 -3 -93 -84 0 -84 0 -3 93 -3 92 -62 3
-63 3 0 -261z"/>
<path d="M9609 5894 c-24 -26 -24 -26 -24 -257 l0 -232 65 0 65 0 3 78 3 77
84 0 84 0 3 -77 3 -78 65 0 65 0 0 233 0 234 -28 24 c-27 23 -33 24 -196 24
-167 0 -168 0 -192 -26z m281 -154 l0 -70 -85 0 -85 0 0 70 0 70 85 0 85 0 0
-70z"/>
<path d="M10172 5900 c-12 -11 -24 -31 -28 -43 -3 -13 -4 -110 -2 -216 l3
-193 28 -24 c27 -23 33 -24 198 -24 l169 0 0 60 0 60 -122 0 c-68 0 -129 4
-136 8 -9 7 -12 41 -10 138 l3 129 133 3 132 3 0 59 0 60 -173 0 c-160 0 -175
-2 -195 -20z"/>
<path d="M10670 5660 l0 -260 60 0 60 0 0 65 c0 63 2 68 39 108 22 23 41 40
44 37 2 -3 28 -49 57 -103 28 -54 58 -101 65 -103 6 -3 42 -4 78 -2 l65 3 -90
148 -90 147 84 98 c46 53 88 103 92 110 5 9 -10 12 -66 11 l-73 0 -95 -113
-95 -112 -5 111 -5 110 -62 3 -63 3 0 -261z"/>
<path d="M11240 5660 l0 -261 63 3 62 3 3 258 2 257 -65 0 -65 0 0 -260z"/>
<path d="M11490 5660 l0 -261 63 3 62 3 5 195 5 195 83 3 82 3 0 -185 c0 -101
3 -191 6 -200 5 -12 21 -16 65 -16 l59 0 0 239 0 240 -26 20 c-25 20 -40 21
-215 21 l-189 0 0 -260z"/>
<path d="M12073 5896 l-28 -24 0 -212 0 -212 28 -24 c27 -23 33 -24 193 -24
162 0 165 0 190 25 24 24 25 29 22 142 l-3 118 -39 3 c-22 2 -50 1 -63 -2 -22
-6 -23 -11 -23 -81 l0 -75 -85 0 -85 0 0 135 0 134 138 3 137 3 0 55 0 55
-177 3 c-174 2 -177 2 -205 -22z"/>
</g>
</svg>
